<svg aria-hidden="true" style="position: absolute; width: 0; height: 0; overflow: hidden;" version="1.1" xmlns="http://www.w3.org/2000/svg" xmlns:xlink="http://www.w3.org/1999/xlink">
    <defs>
        
        <symbol id="icon-logo-text" viewBox="0 0 467 32">
            <path fill="#f6f5ef" style="fill: var(--color1, #f6f5ef)" d="M10.633 31.47v-11.005l-10.633-19.934h6.561l7.013 14.276 6.968-14.276h6.47l-10.587 19.934v11.005h-5.791z"></path>
            <path fill="#f6f5ef" style="fill: var(--color1, #f6f5ef)" d="M26.376 31.47l11.583-30.939h6.515l11.583 30.939h-6.154l-2.533-7.16h-12.352l-2.579 7.16h-6.063zM36.601 19.89h9.185l-4.615-12.862-4.57 12.862z"></path>
            <path fill="#f6f5ef" style="fill: var(--color1, #f6f5ef)" d="M74.025 32c-3.197 0-5.942-0.663-8.235-1.989-2.292-1.355-4.057-3.227-5.294-5.613-1.237-2.416-1.855-5.201-1.855-8.354s0.618-5.937 1.855-8.354c1.237-2.416 3.001-4.302 5.294-5.657s5.037-2.033 8.235-2.033c3.801 0 6.908 0.928 9.321 2.785 2.443 1.827 3.966 4.405 4.57 7.735h-6.38c-0.392-1.68-1.237-2.991-2.534-3.934-1.267-0.972-2.956-1.459-5.068-1.459-2.926 0-5.218 0.972-6.877 2.917s-2.489 4.611-2.489 8 0.829 6.055 2.489 8c1.659 1.915 3.951 2.873 6.877 2.873 2.112 0 3.801-0.442 5.068-1.326 1.297-0.913 2.142-2.166 2.534-3.757h6.38c-0.603 3.182-2.126 5.672-4.57 7.47-2.413 1.797-5.52 2.696-9.321 2.696z"></path>
            <path fill="#f6f5ef" style="fill: var(--color1, #f6f5ef)" d="M94.399 31.47v-30.939h5.791v12.862h14.207v-12.862h5.791v30.939h-5.791v-13.481h-14.207v13.481h-5.791z"></path>
            <path fill="#f6f5ef" style="fill: var(--color1, #f6f5ef)" d="M135.077 31.47v-26.387h-9.23v-4.553h24.297v4.553h-9.275v26.387h-5.791z"></path>
            <path fill="#f6f5ef" style="fill: var(--color1, #f6f5ef)" d="M165.894 31.47l11.583-30.939h6.515l11.583 30.939h-6.154l-2.533-7.16h-12.352l-2.579 7.16h-6.063zM176.119 19.89h9.185l-4.615-12.862-4.57 12.862z"></path>
            <path fill="#f6f5ef" style="fill: var(--color1, #f6f5ef)" d="M201.012 31.47v-30.939h10.814c3.71 0 6.756 0.648 9.14 1.945 2.413 1.267 4.193 3.064 5.339 5.392 1.176 2.298 1.764 5.009 1.764 8.133s-0.588 5.849-1.764 8.177c-1.146 2.298-2.926 4.096-5.339 5.392-2.383 1.267-5.429 1.901-9.14 1.901h-10.814zM206.804 26.608h4.751c2.654 0 4.751-0.413 6.289-1.238 1.538-0.855 2.639-2.063 3.303-3.624 0.664-1.591 0.996-3.506 0.996-5.746 0-2.21-0.332-4.111-0.996-5.702s-1.764-2.814-3.303-3.668c-1.538-0.854-3.635-1.282-6.289-1.282h-4.751v21.26z"></path>
            <path fill="#f6f5ef" style="fill: var(--color1, #f6f5ef)" d="M242.66 31.47l-11.583-30.939h6.199l8.958 25.149 9.004-25.149h6.108l-11.583 30.939h-7.104z"></path>
            <path fill="#f6f5ef" style="fill: var(--color1, #f6f5ef)" d="M266.469 31.47v-30.939h20.677v4.553h-14.885v8.486h13.528v4.42h-13.528v8.928h14.885v4.552h-20.677z"></path>
            <path fill="#f6f5ef" style="fill: var(--color1, #f6f5ef)" d="M293.984 31.47v-30.939h5.791l14.886 21.79v-21.79h5.793v30.939h-5.793l-14.886-21.746v21.746h-5.791z"></path>
            <path fill="#f6f5ef" style="fill: var(--color1, #f6f5ef)" d="M335.325 31.47v-26.387h-9.229v-4.553h24.294v4.553h-9.274v26.387h-5.792z"></path>
            <path fill="#f6f5ef" style="fill: var(--color1, #f6f5ef)" d="M368.256 32c-2.323 0-4.419-0.442-6.288-1.326-1.872-0.913-3.363-2.284-4.48-4.11-1.088-1.827-1.629-4.14-1.629-6.939v-19.094h5.792v19.138c0 2.416 0.586 4.214 1.763 5.392 1.206 1.179 2.867 1.768 4.976 1.768 2.083 0 3.725-0.589 4.934-1.768 1.206-1.179 1.808-2.976 1.808-5.392v-19.138h5.792v19.094c0 2.799-0.573 5.112-1.718 6.939-1.149 1.827-2.685 3.197-4.618 4.111-1.898 0.884-4.010 1.326-6.333 1.326z"></path>
            <path fill="#f6f5ef" style="fill: var(--color1, #f6f5ef)" d="M388.195 31.47v-30.939h11.626c2.534 0 4.618 0.427 6.246 1.282 1.658 0.825 2.893 1.96 3.709 3.403 0.813 1.414 1.222 2.991 1.222 4.729 0 1.886-0.515 3.61-1.539 5.171-0.995 1.562-2.563 2.696-4.707 3.403l6.563 12.95h-6.653l-5.882-12.199h-4.797v12.199h-5.789zM393.984 15.116h5.475c1.93 0 3.35-0.457 4.253-1.37 0.906-0.913 1.357-2.122 1.357-3.624 0-1.473-0.451-2.652-1.357-3.536-0.874-0.884-2.307-1.326-4.298-1.326h-5.43v9.856z"></path>
            <path fill="#f6f5ef" style="fill: var(--color1, #f6f5ef)" d="M417.741 31.47v-30.939h20.678v4.553h-14.886v8.486h13.53v4.42h-13.53v8.928h14.886v4.552h-20.678z"></path>
            <path fill="#f6f5ef" style="fill: var(--color1, #f6f5ef)" d="M456.070 32c-2.323 0-4.374-0.383-6.154-1.149-1.779-0.796-3.184-1.915-4.208-3.359-1.027-1.473-1.555-3.256-1.584-5.348h6.109c0.061 1.444 0.589 2.667 1.584 3.669 1.024 0.972 2.426 1.459 4.208 1.459 1.536 0 2.758-0.354 3.664-1.061 0.906-0.737 1.357-1.709 1.357-2.917 0-1.267-0.406-2.254-1.222-2.961-0.784-0.707-1.84-1.282-3.165-1.724-1.328-0.442-2.746-0.913-4.256-1.414-2.442-0.825-4.31-1.886-5.61-3.182-1.267-1.296-1.901-3.020-1.901-5.171-0.029-1.827 0.41-3.389 1.312-4.685 0.938-1.326 2.205-2.343 3.802-3.050 1.6-0.737 3.44-1.105 5.52-1.105 2.112 0 3.968 0.368 5.565 1.105 1.629 0.737 2.896 1.768 3.802 3.094 0.934 1.326 1.434 2.902 1.494 4.729h-6.202c-0.029-1.090-0.467-2.048-1.312-2.873-0.813-0.854-1.958-1.282-3.437-1.282-1.267-0.029-2.339 0.28-3.213 0.928-0.845 0.619-1.267 1.532-1.267 2.74 0 1.031 0.333 1.856 0.995 2.475 0.662 0.589 1.568 1.090 2.714 1.503 1.149 0.412 2.461 0.854 3.939 1.326 1.568 0.53 2.998 1.149 4.298 1.856 1.296 0.707 2.336 1.65 3.12 2.829 0.784 1.149 1.178 2.637 1.178 4.464 0 1.621-0.422 3.123-1.267 4.508s-2.096 2.505-3.754 3.359c-1.661 0.825-3.696 1.238-6.109 1.238z"></path>
        </symbol>
      
        <symbol id="icon-arrow-left" viewBox="0 0 32 32">
            <path d="M9.778 8.889l-9.778 7.111 9.778 7.111v-5.879h22.222v-2.463h-22.222v-5.879z"></path>
        </symbol>

        <symbol id="icon-arrow-right" viewBox="0 0 32 32">
            <path d="M22.222 8.889l9.778 7.111-9.778 7.111v-5.879h-22.222v-2.463h22.222v-5.879z"></path>
        </symbol>

        <symbol id="icon-arrow-up" viewBox="0 0 32 32">
            <path d="M8 9.778l8-9.778 8 9.778h-6.614v22.222h-2.771v-22.222h-6.614z"></path>
        </symbol>

        <symbol id="icon-cros" viewBox="0 0 32 32">
            <path stroke-linejoin="round" stroke-linecap="round" stroke-miterlimit="4" stroke-width="1.7333" d="M24 8l-16 16"></path>
            <path stroke-linejoin="round" stroke-linecap="round" stroke-miterlimit="4" stroke-width="1.7333" d="M8 8l16 16"></path>
        </symbol>

        <symbol id="icon-facebook-f" viewBox="0 0 32 32">
            <path d="M18.425 10.801h1.462v-2.473c-0.708-0.074-1.419-0.11-2.131-0.109-2.116 0-3.562 1.291-3.562 3.656v2.038h-2.388v2.769h2.388v7.093h2.862v-7.093h2.38l0.358-2.769h-2.738v-1.765c0-0.817 0.218-1.346 1.369-1.346z"></path>
            <path stroke-linejoin="miter" stroke-linecap="butt" stroke-miterlimit="4" stroke-width="1" d="M6 0.5h20c3.038 0 5.5 2.462 5.5 5.5v20c0 3.038-2.462 5.5-5.5 5.5h-20c-3.038 0-5.5-2.462-5.5-5.5v-20c0-3.038 2.462-5.5 5.5-5.5z"></path>
        </symbol>

        <symbol id="icon-gg-menu-left" viewBox="0 0 32 32">
            <path d="M2.667 7.993c0-0.733 0.595-1.327 1.327-1.327h10.68c0.352 0 0.689 0.14 0.938 0.389s0.389 0.586 0.389 0.938c0 0.352-0.14 0.689-0.389 0.938s-0.586 0.389-0.938 0.389h-10.68c-0.352 0-0.689-0.14-0.938-0.389s-0.389-0.586-0.389-0.938zM2.667 16c0-0.733 0.595-1.327 1.327-1.327h24.013c0.352 0 0.689 0.14 0.938 0.389s0.389 0.586 0.389 0.938c0 0.352-0.14 0.689-0.389 0.938s-0.586 0.389-0.938 0.389h-24.013c-0.352 0-0.689-0.14-0.938-0.389s-0.389-0.586-0.389-0.938zM3.993 22.68c-0.352 0-0.689 0.14-0.938 0.389s-0.389 0.586-0.389 0.938c0 0.352 0.14 0.689 0.389 0.938s0.586 0.389 0.938 0.389h16.013c0.352 0 0.689-0.14 0.938-0.389s0.389-0.586 0.389-0.938c0-0.352-0.14-0.689-0.389-0.938s-0.586-0.389-0.938-0.389h-16.013z"></path>
        </symbol>

        <symbol id="icon-instagram" viewBox="0 0 32 32">
            <path d="M19.991 11.115c-0.177 0-0.351 0.053-0.498 0.151s-0.262 0.238-0.33 0.402c-0.068 0.164-0.086 0.344-0.051 0.518s0.12 0.334 0.245 0.459c0.125 0.125 0.285 0.211 0.459 0.245s0.354 0.017 0.518-0.051c0.164-0.068 0.304-0.183 0.402-0.33s0.151-0.321 0.151-0.498c0-0.238-0.094-0.466-0.262-0.634s-0.396-0.262-0.634-0.262zM23.426 12.922c-0.015-0.62-0.131-1.232-0.343-1.815-0.19-0.498-0.485-0.949-0.866-1.322-0.37-0.383-0.822-0.676-1.322-0.859-0.58-0.219-1.194-0.338-1.814-0.351-0.791-0.045-1.045-0.045-3.076-0.045s-2.285 0-3.076 0.045c-0.62 0.013-1.234 0.132-1.814 0.351-0.499 0.184-0.95 0.478-1.322 0.859-0.383 0.37-0.676 0.822-0.859 1.322-0.219 0.581-0.338 1.194-0.351 1.815-0.045 0.791-0.045 1.045-0.045 3.076s0 2.285 0.045 3.076c0.013 0.62 0.132 1.234 0.351 1.814 0.182 0.5 0.476 0.952 0.859 1.322 0.371 0.381 0.823 0.674 1.322 0.859 0.58 0.219 1.194 0.338 1.814 0.351 0.791 0.045 1.045 0.045 3.076 0.045s2.285 0 3.076-0.045c0.62-0.013 1.234-0.131 1.814-0.351 0.5-0.182 0.952-0.476 1.322-0.859 0.383-0.371 0.678-0.823 0.866-1.322 0.213-0.582 0.329-1.195 0.343-1.814 0-0.791 0.045-1.045 0.045-3.076s0-2.285-0.045-3.076zM22.082 18.985c-0.005 0.474-0.091 0.944-0.254 1.389-0.119 0.325-0.311 0.619-0.56 0.859-0.242 0.247-0.535 0.438-0.859 0.56-0.445 0.163-0.915 0.248-1.389 0.254-0.747 0.037-1.023 0.045-2.987 0.045s-2.24 0-2.987-0.045c-0.492 0.009-0.982-0.067-1.449-0.224-0.309-0.128-0.589-0.319-0.821-0.56-0.248-0.24-0.437-0.534-0.553-0.859-0.182-0.452-0.283-0.932-0.299-1.419 0-0.747-0.045-1.023-0.045-2.987s0-2.24 0.045-2.987c0.003-0.485 0.092-0.965 0.261-1.419 0.132-0.315 0.333-0.596 0.59-0.821 0.227-0.257 0.507-0.461 0.821-0.597 0.455-0.164 0.935-0.25 1.419-0.254 0.747 0 1.023-0.045 2.987-0.045s2.24 0 2.987 0.045c0.474 0.005 0.944 0.091 1.389 0.254 0.339 0.126 0.644 0.331 0.889 0.597 0.245 0.229 0.436 0.51 0.56 0.821 0.166 0.455 0.252 0.935 0.254 1.419 0.037 0.747 0.045 1.023 0.045 2.987s-0.007 2.24-0.045 2.987zM16.004 12.168c-0.757 0.002-1.497 0.227-2.126 0.649s-1.119 1.021-1.408 1.721c-0.289 0.7-0.364 1.47-0.215 2.212s0.514 1.424 1.050 1.959c0.536 0.535 1.219 0.899 1.961 1.046s1.513 0.071 2.212-0.219c0.7-0.29 1.297-0.781 1.718-1.411s0.645-1.37 0.645-2.127c0.001-0.504-0.098-1.003-0.29-1.469s-0.475-0.889-0.832-1.245c-0.357-0.356-0.78-0.638-1.246-0.83s-0.965-0.289-1.469-0.287zM16.004 18.484c-0.492 0-0.973-0.146-1.381-0.419s-0.728-0.662-0.916-1.116c-0.188-0.454-0.237-0.954-0.141-1.437s0.333-0.925 0.68-1.273c0.348-0.348 0.791-0.585 1.273-0.681s0.982-0.047 1.437 0.142c0.454 0.188 0.843 0.507 1.116 0.916s0.419 0.89 0.419 1.381c0 0.326-0.064 0.65-0.189 0.951s-0.308 0.576-0.539 0.807-0.505 0.414-0.807 0.539c-0.302 0.125-0.625 0.189-0.951 0.189z"></path>
            <path stroke-linejoin="miter" stroke-linecap="butt" stroke-miterlimit="4" stroke-width="1" d="M6 0.5h20c3.038 0 5.5 2.462 5.5 5.5v20c0 3.038-2.462 5.5-5.5 5.5h-20c-3.038 0-5.5-2.462-5.5-5.5v-20c0-3.038 2.462-5.5 5.5-5.5z"></path>
        </symbol>

        <symbol id="icon-you-tube" viewBox="0 0 32 32">
            <path d="M20.532 10.5c-0.748-0.044-2.288-0.088-4.62-0.088h-0.308c-2.244 0-3.74 0.044-4.488 0.132-1.012 0.088-1.716 0.352-2.112 0.704-0.352 0.308-0.616 0.88-0.704 1.628-0.044 0.484-0.088 1.496-0.088 3.036v0.22c0 1.452 0.044 2.464 0.132 2.948 0.132 0.704 0.352 1.232 0.792 1.54 0.44 0.352 1.188 0.572 2.244 0.66 0.748 0.044 2.288 0.088 4.62 0.088h0.308c2.244 0 3.74-0.044 4.488-0.132 1.012-0.088 1.716-0.352 2.112-0.704 0.352-0.308 0.616-0.88 0.704-1.628 0.044-0.484 0.088-1.496 0.088-3.036v-0.22c0-1.452-0.044-2.464-0.132-2.948-0.132-0.704-0.352-1.232-0.792-1.54-0.44-0.352-1.188-0.572-2.244-0.66zM18.816 15.912l-4.84 2.904v-5.808l4.84 2.904z"></path>
            <path stroke-linejoin="miter" stroke-linecap="butt" stroke-miterlimit="4" stroke-width="1" d="M6 0.5h20c3.038 0 5.5 2.462 5.5 5.5v20c0 3.038-2.462 5.5-5.5 5.5h-20c-3.038 0-5.5-2.462-5.5-5.5v-20c0-3.038 2.462-5.5 5.5-5.5z"></path>
        </symbol>
<!-- Додала Оля -->
        <symbol id="fb-icon" viewBox="0 0 18 32">
            <path d="M14.851 5.602h2.924v-4.947c-1.416-0.147-2.839-0.22-4.262-0.218-4.231 0-7.124 2.582-7.124 7.311v4.076h-4.776v5.538h4.776v14.187h5.724v-14.187h4.76l0.716-5.538h-5.476v-3.531c0-1.633 0.436-2.691 2.738-2.691z"></path>
        </symbol>

        <symbol id="instagram-icon" viewBox="0 0 32 32">
            <path d="M23.982 6.229c-0.354 0-0.701 0.105-0.996 0.302s-0.524 0.477-0.66 0.804-0.171 0.688-0.102 1.035c0.069 0.348 0.24 0.667 0.49 0.918s0.57 0.421 0.918 0.49c0.348 0.069 0.708 0.034 1.035-0.102s0.607-0.365 0.804-0.66c0.197-0.295 0.302-0.641 0.302-0.996 0-0.475-0.189-0.931-0.525-1.267s-0.792-0.525-1.267-0.525zM30.851 9.843c-0.029-1.239-0.261-2.465-0.687-3.629-0.38-0.996-0.971-1.898-1.732-2.643-0.739-0.765-1.643-1.353-2.643-1.717-1.161-0.439-2.388-0.676-3.629-0.702-1.583-0.090-2.091-0.090-6.152-0.090s-4.57 0-6.153 0.090c-1.241 0.026-2.468 0.263-3.629 0.702-0.998 0.368-1.901 0.955-2.643 1.717-0.765 0.739-1.353 1.643-1.717 2.643-0.439 1.161-0.676 2.388-0.702 3.629-0.090 1.583-0.090 2.091-0.090 6.153s0 4.57 0.090 6.153c0.026 1.241 0.263 2.468 0.702 3.629 0.365 1 0.952 1.904 1.717 2.643 0.742 0.762 1.645 1.349 2.643 1.717 1.161 0.439 2.388 0.676 3.629 0.702 1.583 0.090 2.091 0.090 6.153 0.090s4.57 0 6.152-0.090c1.241-0.026 2.468-0.263 3.629-0.702 1-0.365 1.904-0.952 2.643-1.717 0.765-0.743 1.357-1.645 1.732-2.643 0.426-1.164 0.658-2.39 0.687-3.629 0-1.583 0.090-2.091 0.090-6.153s0-4.57-0.090-6.153zM28.163 21.969c-0.011 0.948-0.182 1.887-0.508 2.778-0.238 0.65-0.621 1.237-1.12 1.717-0.484 0.493-1.070 0.876-1.717 1.12-0.89 0.325-1.83 0.497-2.778 0.508-1.493 0.075-2.046 0.090-5.973 0.090s-4.48 0-5.973-0.090c-0.984 0.018-1.964-0.133-2.897-0.448-0.619-0.257-1.178-0.638-1.643-1.12-0.496-0.48-0.874-1.067-1.105-1.717-0.365-0.903-0.567-1.864-0.597-2.837 0-1.493-0.090-2.046-0.090-5.973s0-4.48 0.090-5.973c0.007-0.969 0.184-1.929 0.523-2.837 0.263-0.63 0.666-1.192 1.18-1.643 0.454-0.513 1.014-0.921 1.643-1.195 0.91-0.328 1.87-0.5 2.837-0.508 1.493 0 2.046-0.090 5.973-0.090s4.48 0 5.973 0.090c0.948 0.011 1.887 0.183 2.778 0.508 0.679 0.252 1.288 0.661 1.777 1.195 0.489 0.459 0.872 1.020 1.12 1.643 0.332 0.909 0.504 1.869 0.508 2.837 0.075 1.493 0.090 2.046 0.090 5.973s-0.015 4.48-0.090 5.973zM16.008 8.335c-1.515 0.003-2.994 0.455-4.252 1.298s-2.237 2.041-2.815 3.441c-0.578 1.4-0.727 2.94-0.43 4.425s1.028 2.849 2.1 3.918c1.072 1.070 2.437 1.798 3.923 2.093s3.025 0.142 4.424-0.439c1.399-0.58 2.595-1.562 3.436-2.822s1.29-2.74 1.29-4.255c0.002-1.008-0.195-2.006-0.58-2.937s-0.951-1.777-1.664-2.489c-0.713-0.712-1.56-1.276-2.492-1.659s-1.931-0.579-2.939-0.575zM16.008 20.969c-0.984 0-1.945-0.292-2.763-0.838s-1.455-1.323-1.832-2.232-0.475-1.909-0.283-2.873c0.192-0.965 0.665-1.851 1.361-2.546s1.582-1.169 2.546-1.361c0.965-0.192 1.964-0.093 2.873 0.283s1.685 1.014 2.232 1.832c0.547 0.818 0.838 1.779 0.838 2.763 0 0.653-0.129 1.3-0.379 1.903s-0.616 1.152-1.078 1.613-1.010 0.828-1.613 1.078c-0.603 0.25-1.25 0.378-1.903 0.378z"></path>
        </symbol>

        <symbol id="youtube-icon" viewBox="0 0 32 32">
          <path d="M24.057 6.222c-1.33-0.078-4.068-0.156-8.213-0.156h-0.548c-3.989 0-6.649 0.078-7.979 0.235-1.799 0.156-3.051 0.626-3.755 1.252-0.626 0.548-1.095 1.564-1.252 2.894-0.078 0.86-0.156 2.66-0.156 5.397v0.391c0 2.581 0.078 4.38 0.235 5.241 0.235 1.252 0.626 2.19 1.408 2.738 0.782 0.626 2.112 1.017 3.989 1.173 1.33 0.078 4.068 0.156 8.213 0.156h0.548c3.989 0 6.649-0.078 7.979-0.235 1.799-0.156 3.051-0.626 3.755-1.252 0.626-0.548 1.095-1.564 1.252-2.894 0.078-0.86 0.156-2.66 0.156-5.397v-0.391c0-2.581-0.078-4.38-0.235-5.241-0.235-1.252-0.626-2.19-1.408-2.738-0.782-0.626-2.112-1.017-3.989-1.173zM21.006 15.844l-8.604 5.163v-10.325l8.604 5.163z"></>
        </symbol>

    </defs>
</svg>
